<svg width="277" height="55" viewBox="0 0 277 55" fill="none" xmlns="http://www.w3.org/2000/svg">
<path d="M182.923 25.9087L180.133 23.8347C178.989 16.1107 172.838 9.96039 165.115 8.8161L163.041 6.02685C162.755 5.66926 162.183 5.66926 161.896 6.02685L159.822 8.8161C152.098 9.96039 145.948 16.1112 144.804 23.8347L142.015 25.9087C141.8 26.0518 141.729 26.2663 141.729 26.4809C141.729 26.6955 141.8 26.91 142.015 27.053L144.804 29.1271C145.948 36.851 152.099 43.0014 159.822 44.1457L161.896 46.9349C162.04 47.1495 162.254 47.221 162.469 47.221C162.683 47.221 162.898 47.1495 163.041 46.9349L165.115 44.1457C172.839 43.0014 178.989 36.8506 180.133 29.1271L182.923 27.053C183.137 26.91 183.209 26.6955 183.209 26.4809C183.209 26.2663 183.137 26.0518 182.923 25.9087ZM179.061 28.1973C178.918 28.3404 178.775 28.4834 178.775 28.698C177.773 35.9931 171.98 41.786 164.614 42.787C164.399 42.787 164.256 42.93 164.113 43.0731L162.468 45.2902L160.752 43.0731C160.609 42.93 160.466 42.787 160.251 42.787C152.956 41.7857 147.163 35.9926 146.162 28.6261C146.162 28.4116 146.019 28.2685 145.876 28.1255L143.659 26.4805L145.876 24.7641C146.019 24.6926 146.162 24.478 146.162 24.335C147.163 16.9685 152.956 11.1756 160.323 10.1741C160.537 10.1741 160.68 10.0311 160.824 9.88802L162.468 7.67093L164.185 9.88802C164.256 10.0311 164.471 10.1741 164.614 10.1741C171.981 11.1754 177.773 16.9685 178.775 24.335C178.775 24.5495 178.918 24.6926 179.061 24.8356L181.278 26.5521L179.061 28.1973Z" fill="#0E6755"/>
<path d="M162.468 23.6201C161.682 23.6201 160.966 23.9062 160.466 24.4783C159.894 24.979 159.608 25.6941 159.608 26.4809C159.608 27.2676 159.894 27.9827 160.466 28.4834C161.539 29.5562 163.398 29.5562 164.542 28.4834C165.114 27.9112 165.401 27.196 165.401 26.4809C165.401 25.7657 165.114 24.979 164.542 24.4783C163.97 23.9062 163.255 23.6201 162.468 23.6201Z" fill="#0E6755"/>
<path d="M162.468 11.4623C154.172 11.4623 147.45 18.1852 147.45 26.4809C147.45 34.7766 154.173 41.4995 162.468 41.4995C170.764 41.4995 177.487 34.7766 177.487 26.4809C177.487 18.1852 170.764 11.4623 162.468 11.4623ZM161.753 14.323C161.753 13.8939 162.039 13.6078 162.468 13.6078C162.897 13.6078 163.183 13.8939 163.183 14.323V15.7534C163.183 16.1825 162.897 16.4686 162.468 16.4686C162.039 16.4686 161.753 16.1825 161.753 15.7534V14.323ZM151.74 27.1963H150.31C149.881 27.1963 149.595 26.9102 149.595 26.4811C149.595 26.052 149.881 25.766 150.31 25.766H151.74C152.17 25.766 152.456 26.052 152.456 26.4811C152.456 26.9102 152.17 27.1963 151.74 27.1963ZM163.183 38.6393C163.183 39.0684 162.897 39.3545 162.468 39.3545C162.039 39.3545 161.753 39.0684 161.753 38.6393V37.2089C161.753 36.7798 162.039 36.4937 162.468 36.4937C162.897 36.4937 163.183 36.7798 163.183 37.2089V38.6393ZM171.694 18.2566L166.688 27.2682C166.545 28.1264 166.116 28.9131 165.472 29.5568C164.828 30.2004 164.042 30.6296 163.183 30.7726L154.172 35.7791H153.886C153.671 35.7791 153.528 35.7076 153.385 35.5645C153.17 35.35 153.099 34.9924 153.242 34.7063L158.249 25.6948C158.392 24.8365 158.821 24.0498 159.464 23.4062C160.108 22.7625 160.895 22.3334 161.753 22.1904L170.764 17.1839C171.051 17.0408 171.408 17.1123 171.623 17.3269C171.766 17.613 171.837 17.9706 171.694 18.2566ZM174.626 27.1963H173.196C172.767 27.1963 172.481 26.9102 172.481 26.4811C172.481 26.052 172.767 25.766 173.196 25.766H174.626C175.056 25.766 175.342 26.052 175.342 26.4811C175.342 26.9102 175.056 27.1963 174.626 27.1963Z" fill="#188670"/>
<path d="M261.079 42.758C259.168 42.758 257.447 42.4178 255.915 41.7372C254.397 41.0435 253.193 40.0227 252.303 38.6746C251.426 37.3266 250.988 35.6644 250.988 33.6881C250.988 31.9867 251.302 30.5798 251.93 29.4673C252.558 28.3548 253.416 27.4649 254.502 26.7974C255.588 26.1299 256.812 25.626 258.173 25.2857C259.547 24.9324 260.967 24.6772 262.433 24.5201C264.2 24.3369 265.633 24.1733 266.732 24.0293C267.832 23.8723 268.63 23.6367 269.128 23.3226C269.638 22.9954 269.893 22.4915 269.893 21.8109V21.6931C269.893 20.2142 269.455 19.069 268.578 18.2576C267.701 17.4461 266.438 17.0404 264.789 17.0404C263.048 17.0404 261.667 17.4199 260.647 18.179C259.639 18.9381 258.958 19.8346 258.605 20.8686L251.969 19.9263C252.493 18.094 253.357 16.5627 254.561 15.3324C255.765 14.0891 257.237 13.1598 258.978 12.5447C260.719 11.9165 262.643 11.6024 264.75 11.6024C266.202 11.6024 267.649 11.7725 269.088 12.1128C270.528 12.4531 271.843 13.0159 273.034 13.8011C274.225 14.5733 275.181 15.6269 275.901 16.9619C276.633 18.2968 277 19.9655 277 21.968V42.1495H270.168V38.0071H269.932C269.501 38.8448 268.892 39.63 268.107 40.363C267.335 41.0828 266.359 41.6652 265.182 42.1102C264.017 42.5421 262.649 42.758 261.079 42.758ZM262.924 37.536C264.351 37.536 265.587 37.2546 266.634 36.6918C267.681 36.1159 268.486 35.3569 269.049 34.4145C269.625 33.4722 269.913 32.4448 269.913 31.3323V27.779C269.69 27.9622 269.311 28.1324 268.774 28.2894C268.251 28.4465 267.662 28.5839 267.007 28.7017C266.353 28.8195 265.705 28.9242 265.064 29.0158C264.422 29.1074 263.866 29.1859 263.395 29.2514C262.335 29.3953 261.386 29.6309 260.548 29.9581C259.711 30.2853 259.05 30.7434 258.566 31.3323C258.081 31.9082 257.839 32.6542 257.839 33.5704C257.839 34.8791 258.317 35.8673 259.272 36.5348C260.228 37.2022 261.445 37.536 262.924 37.536Z" fill="#0E6755"/>
<path d="M240.751 42.1495V11.995H247.858V42.1495H240.751Z" fill="#0E6755"/>
<path d="M229.101 29.4673V11.995H236.207V42.1495H229.316V36.79H229.002C228.322 38.4783 227.203 39.8591 225.645 40.9323C224.101 42.0055 222.197 42.5421 219.932 42.5421C217.956 42.5421 216.209 42.1036 214.691 41.2268C213.186 40.3368 212.008 39.0476 211.157 37.3593C210.306 35.6579 209.881 33.6031 209.881 31.1949V11.995H216.988V30.0955C216.988 32.0064 217.511 33.5246 218.558 34.6501C219.605 35.7757 220.979 36.3384 222.681 36.3384C223.728 36.3384 224.742 36.0832 225.724 35.5728C226.705 35.0624 227.51 34.3033 228.139 33.2955C228.78 32.2747 229.101 30.9986 229.101 29.4673Z" fill="#0E6755"/>
<path d="M191.783 54.0856C189.231 54.0856 187.039 53.7388 185.206 53.0451C183.374 52.3645 181.902 51.4484 180.789 50.2966C179.677 49.1449 178.905 47.8688 178.473 46.4684L184.873 44.9175C185.161 45.5065 185.579 46.0889 186.129 46.6648C186.679 47.2537 187.418 47.738 188.348 48.1175C189.29 48.5102 190.474 48.7065 191.901 48.7065C193.916 48.7065 195.585 48.2157 196.907 47.2341C198.229 46.2656 198.89 44.6689 198.89 42.4439V36.7311H198.536C198.17 37.464 197.633 38.2165 196.927 38.9887C196.233 39.7609 195.31 40.4088 194.159 40.9323C193.02 41.4558 191.587 41.7176 189.859 41.7176C187.543 41.7176 185.442 41.1744 183.557 40.0881C181.686 38.9887 180.194 37.3528 179.081 35.1802C177.982 32.9945 177.432 30.2591 177.432 26.9741C177.432 23.6628 177.982 20.8686 179.081 18.5913C180.194 16.3009 181.692 14.5668 183.577 13.3889C185.462 12.1979 187.562 11.6024 189.879 11.6024C191.646 11.6024 193.098 11.9034 194.237 12.5054C195.389 13.0944 196.305 13.8077 196.986 14.6453C197.666 15.4698 198.183 16.2486 198.536 16.9815H198.929V11.995H205.938V42.6402C205.938 45.2186 205.322 47.3519 204.092 49.0402C202.862 50.7285 201.18 51.9915 199.047 52.8291C196.914 53.6668 194.492 54.0856 191.783 54.0856ZM191.842 36.1421C193.347 36.1421 194.63 35.7757 195.69 35.0427C196.75 34.3098 197.555 33.2563 198.105 31.882C198.654 30.5078 198.929 28.8587 198.929 26.9348C198.929 25.0371 198.654 23.3749 198.105 21.9483C197.568 20.5218 196.77 19.4158 195.709 18.6306C194.662 17.8322 193.373 17.433 191.842 17.433C190.258 17.433 188.936 17.8453 187.876 18.6698C186.816 19.4944 186.018 20.6265 185.481 22.0661C184.945 23.4927 184.676 25.1156 184.676 26.9348C184.676 28.7802 184.945 30.3966 185.481 31.7839C186.031 33.1581 186.836 34.2313 187.896 35.0035C188.969 35.7626 190.285 36.1421 191.842 36.1421Z" fill="#0E6755"/>
<path d="M132.707 42.6468C130.796 42.6468 129.075 42.3065 127.544 41.6259C126.026 40.9323 124.822 39.9114 123.932 38.5634C123.055 37.2153 122.616 35.5532 122.616 33.5769C122.616 31.8755 122.93 30.4685 123.559 29.3561C124.187 28.2436 125.044 27.3536 126.13 26.6861C127.217 26.0187 128.44 25.5148 129.802 25.1745C131.176 24.8211 132.596 24.5659 134.062 24.4089C135.829 24.2256 137.262 24.062 138.361 23.9181C139.46 23.761 140.259 23.5254 140.756 23.2113C141.267 22.8841 141.522 22.3802 141.522 21.6997V21.5819C141.522 20.1029 141.083 18.9578 140.206 18.1463C139.33 17.3349 138.067 16.9291 136.417 16.9291C134.677 16.9291 133.296 17.3087 132.275 18.0678C131.267 18.8269 130.587 19.7234 130.233 20.7573L123.598 19.815C124.121 17.9827 124.985 16.4514 126.189 15.2212C127.393 13.9778 128.866 13.0486 130.606 12.4335C132.347 11.8052 134.271 11.4911 136.378 11.4911C137.831 11.4911 139.277 11.6613 140.717 12.0016C142.157 12.3418 143.472 12.9046 144.663 13.6899C145.854 14.4621 146.809 15.5157 147.529 16.8506C148.262 18.1856 148.628 19.8543 148.628 21.8567V42.0382H141.797V37.8959H141.561C141.129 38.7335 140.521 39.5188 139.735 40.2517C138.963 40.9715 137.988 41.554 136.81 41.9989C135.645 42.4308 134.278 42.6468 132.707 42.6468ZM134.552 37.4247C135.979 37.4247 137.216 37.1433 138.263 36.5806C139.31 36.0047 140.115 35.2456 140.678 34.3033C141.253 33.361 141.541 32.3336 141.541 31.2211V27.6677C141.319 27.851 140.939 28.0211 140.403 28.1782C139.879 28.3352 139.29 28.4726 138.636 28.5904C137.981 28.7082 137.334 28.8129 136.692 28.9045C136.051 28.9962 135.495 29.0747 135.024 29.1401C133.964 29.2841 133.015 29.5197 132.177 29.8469C131.339 30.1741 130.678 30.6321 130.194 31.2211C129.71 31.797 129.468 32.543 129.468 33.4591C129.468 34.7679 129.946 35.756 130.901 36.4235C131.856 37.091 133.074 37.4247 134.552 37.4247Z" fill="#0E6755"/>
<path d="M77.1796 42.0382V11.8838H83.9722V17.0077H84.3255C84.9538 15.2801 85.9942 13.932 87.447 12.9635C88.8997 11.9819 90.6339 11.4911 92.6494 11.4911C94.6911 11.4911 96.4122 11.9885 97.8126 12.9832C99.2261 13.9647 100.221 15.3062 100.797 17.0077H101.111C101.778 15.3324 102.904 13.9975 104.487 13.0028C106.084 11.995 107.975 11.4911 110.161 11.4911C112.936 11.4911 115.2 12.368 116.954 14.1218C118.707 15.8756 119.584 18.4342 119.584 21.7978V42.0382H112.458V22.8972C112.458 21.0256 111.961 19.658 110.966 18.7942C109.971 17.9173 108.754 17.4788 107.314 17.4788C105.6 17.4788 104.258 18.0154 103.29 19.0886C102.334 20.1488 101.857 21.5295 101.857 23.2309V42.0382H94.8874V22.6027C94.8874 21.0453 94.4163 19.8019 93.474 18.8727C92.5447 17.9435 91.3275 17.4788 89.8224 17.4788C88.8016 17.4788 87.8723 17.7406 87.0347 18.2641C86.1971 18.7745 85.5296 19.5009 85.0323 20.4432C84.5349 21.3725 84.2863 22.4588 84.2863 23.7021V42.0382H77.1796Z" fill="#0E6755"/>
<path d="M58.0247 42.0382V11.8838H64.9154V16.9095H65.2295C65.7792 15.1688 66.7215 13.8273 68.0565 12.885C69.4046 11.9296 70.9424 11.4519 72.67 11.4519C73.0626 11.4519 73.5011 11.4715 73.9853 11.5108C74.4826 11.5369 74.8949 11.5828 75.2221 11.6482V18.1856C74.9211 18.0809 74.4434 17.9893 73.789 17.9107C73.1477 17.8191 72.526 17.7733 71.924 17.7733C70.6283 17.7733 69.4635 18.0547 68.4295 18.6175C67.4087 19.1672 66.6038 19.9328 66.0148 20.9144C65.4258 21.896 65.1314 23.0281 65.1314 24.3107V42.0382H58.0247Z" fill="#0E6755"/>
<path d="M37.7216 42.6468C35.8108 42.6468 34.0897 42.3065 32.5584 41.6259C31.0402 40.9323 29.8362 39.9114 28.9462 38.5634C28.0693 37.2153 27.6309 35.5532 27.6309 33.5769C27.6309 31.8755 27.945 30.4685 28.5732 29.3561C29.2014 28.2436 30.0587 27.3536 31.145 26.6861C32.2312 26.0187 33.455 25.5148 34.8161 25.1745C36.1903 24.8211 37.6104 24.5659 39.0762 24.4089C40.8431 24.2256 42.2762 24.062 43.3756 23.9181C44.4749 23.761 45.2733 23.5254 45.7706 23.2113C46.2811 22.8841 46.5363 22.3802 46.5363 21.6997V21.5819C46.5363 20.1029 46.0978 18.9578 45.2209 18.1463C44.3441 17.3349 43.0811 16.9291 41.432 16.9291C39.6913 16.9291 38.3106 17.3087 37.2897 18.0678C36.2819 18.8269 35.6014 19.7234 35.248 20.7573L28.6124 19.815C29.136 17.9827 29.9998 16.4514 31.2038 15.2212C32.4079 13.9778 33.8803 13.0486 35.621 12.4335C37.3617 11.8052 39.2856 11.4911 41.3927 11.4911C42.8455 11.4911 44.2917 11.6613 45.7314 12.0016C47.171 12.3418 48.4864 12.9046 49.6774 13.6899C50.8684 14.4621 51.8238 15.5157 52.5436 16.8506C53.2765 18.1856 53.643 19.8543 53.643 21.8567V42.0382H46.8111V37.8959H46.5755C46.1436 38.7335 45.5351 39.5188 44.7498 40.2517C43.9776 40.9715 43.0026 41.554 41.8246 41.9989C40.6598 42.4308 39.2921 42.6468 37.7216 42.6468ZM39.567 37.4247C40.9936 37.4247 42.2304 37.1433 43.2774 36.5806C44.3244 36.0047 45.1293 35.2456 45.6921 34.3033C46.268 33.361 46.5559 32.3336 46.5559 31.2211V27.6677C46.3334 27.851 45.9539 28.0211 45.4173 28.1782C44.8937 28.3352 44.3048 28.4726 43.6504 28.5904C42.996 28.7082 42.3482 28.8129 41.7069 28.9045C41.0656 28.9962 40.5093 29.0747 40.0382 29.1401C38.978 29.2841 38.0292 29.5197 37.1915 29.8469C36.3539 30.1741 35.693 30.6321 35.2087 31.2211C34.7245 31.797 34.4824 32.543 34.4824 33.4591C34.4824 34.7679 34.9601 35.756 35.9155 36.4235C36.8709 37.091 38.0881 37.4247 39.567 37.4247Z" fill="#0E6755"/>
<path d="M0 42.0382V1.83231H25.7569V7.9378H7.2834V18.8531H23.9901V24.9586H7.2834V42.0382H0Z" fill="#0E6755"/>
<path d="M248.3 9C247.649 9.46523 242 9.5 242 9C242.001 6.93844 243.274 3.3785 244.7 0.999999C245 0.499999 251.119 0.405809 251 0.999999C250.5 3.5 249 8.5 248.3 9Z" fill="#0E6755"/>
</svg>
