<svg width="211" height="55" viewBox="0 0 211 55" fill="none" xmlns="http://www.w3.org/2000/svg">
<path d="M189.85 33.7734C189.85 31.4544 190.696 29.5163 192.389 27.959C194.081 26.4017 196.46 25.623 199.523 25.623H206.43V23.6426C206.43 22.0514 206.117 20.9173 205.49 20.2402C204.864 19.5632 203.704 19.2246 202.012 19.2246C200.759 19.2246 198.855 19.36 196.299 19.6309L192.795 20.0625V16C194.674 15.8646 196.062 15.7461 196.959 15.6445C200.006 15.3737 202.274 15.2298 203.764 15.2129C206.218 15.2129 208.021 15.9069 209.172 17.2949C210.323 18.6829 210.898 20.2826 210.898 22.0938V42H207.623L206.887 39.4609H206.734C203.721 41.5091 200.827 42.5247 198.051 42.5078C195.41 42.5078 193.379 41.6191 191.957 39.8418C190.552 38.0475 189.85 36.0247 189.85 33.7734ZM194.369 33.7734C194.369 35.1276 194.725 36.3464 195.436 37.4297C196.146 38.4961 197.314 39.0293 198.939 39.0293C200.09 39.0293 201.377 38.7839 202.799 38.293C204.221 37.7852 205.414 37.2012 206.379 36.541H206.43V29.1016H199.523C196.087 29.1016 194.369 30.6589 194.369 33.7734Z" fill="#4B9BBE"/>
<path d="M182.432 42V16H186.85V42H182.432Z" fill="#4B9BBE"/>
<path d="M157.951 34.0527V16H162.268V34.0527C162.268 35.5085 162.902 36.6341 164.172 37.4297C165.458 38.2253 166.956 38.623 168.666 38.623C170.393 38.623 171.891 38.2253 173.16 37.4297C174.43 36.6341 175.064 35.5085 175.064 34.0527V16H179.432V34.0527C179.432 36.7611 178.323 38.8939 176.105 40.4512C173.905 42.0085 171.417 42.7871 168.641 42.7871C165.882 42.7871 163.41 42.0169 161.227 40.4766C159.043 38.9362 157.951 36.7949 157.951 34.0527Z" fill="#4B9BBE"/>
<path fill-rule="evenodd" clip-rule="evenodd" d="M198.484 1.64971C198.75 0.675522 197.856 -0.219007 196.882 0.0477407L190.611 1.76637C188.999 2.2079 187.739 3.46818 187.297 5.08083L185.579 11.3507C185.312 12.3249 186.207 13.2195 187.181 12.952L193.451 11.2341C195.064 10.7926 196.323 9.53229 196.766 7.91964L198.484 1.64971ZM191.103 6.49987C191.103 5.89351 191.425 5.57143 192.031 5.57143C192.638 5.57143 192.96 5.89366 192.96 6.5C192.96 7.10636 192.638 7.42857 192.031 7.42857C191.425 7.42857 191.103 7.10621 191.103 6.49987ZM192.031 4.16754C190.743 4.16754 189.698 5.21139 189.698 6.49987C189.698 7.78834 190.743 8.83288 192.031 8.83288C193.32 8.83288 194.364 7.78836 194.364 6.49987C194.364 5.21137 193.32 4.16754 192.031 4.16754Z" fill="#1A4D6D"/>
<path d="M132.531 29.1016C132.531 26.7148 132.912 24.4974 133.674 22.4492C134.436 20.401 135.671 18.6829 137.381 17.2949C139.107 15.9069 141.173 15.2129 143.576 15.2129C145.692 15.2129 146.531 15.2129 152.133 16L154.951 16V45.6309C154.951 48.5762 154.088 50.8698 152.361 52.5117C150.601 54.1706 148.011 55 144.592 55C140.919 55 137.195 53.9928 133.42 51.9785L135.654 48.6016C138.701 50.2266 141.68 51.0391 144.592 51.0391C148.587 51.0391 150.584 49.2363 150.584 45.6309V41.0098C148.4 42.1947 146.301 42.7871 144.287 42.7871C140.546 42.7871 137.652 41.4668 135.604 38.8262C133.555 36.1855 132.531 32.944 132.531 29.1016ZM136.848 28.7969C136.848 30.1172 136.975 31.3444 137.229 32.4785C137.499 33.5957 137.923 34.679 138.498 35.7285C139.074 36.7611 139.903 37.5736 140.986 38.166C142.087 38.7415 143.398 39.0293 144.922 39.0293C147.139 39.0293 149.027 38.5977 150.584 37.7344V20.418C148.163 19.3008 146.031 18.7507 144.186 18.7676C141.968 18.7676 140.191 19.6478 138.854 21.4082C137.516 23.1517 136.848 25.6146 136.848 28.7969Z" fill="#4B9BBE"/>
<path d="M100.604 33.5605C100.604 31.2415 101.45 29.3034 103.143 27.7461C104.835 26.1888 107.214 25.4102 110.277 25.4102H117.184V23.4297C117.184 21.8385 116.87 20.7044 116.244 20.0273C115.618 19.3503 114.458 19.0117 112.766 19.0117C111.513 19.0117 109.609 19.1471 107.053 19.418L103.549 19.8496V15.7871C105.428 15.6517 106.816 15.5332 107.713 15.4316C110.76 15.1608 113.028 15.0169 114.518 15C116.972 15 118.775 15.694 119.926 17.082C121.077 18.4701 121.652 20.0697 121.652 21.8809V41.7871H118.377L117.641 39.248H117.488C114.475 41.2962 111.581 42.3118 108.805 42.2949C106.164 42.2949 104.133 41.4062 102.711 39.6289C101.306 37.8346 100.604 35.8118 100.604 33.5605ZM105.123 33.5605C105.123 34.9147 105.479 36.1335 106.189 37.2168C106.9 38.2832 108.068 38.8164 109.693 38.8164C110.844 38.8164 112.131 38.571 113.553 38.0801C114.975 37.5723 116.168 36.9883 117.133 36.3281H117.184V28.8887H110.277C106.841 28.8887 105.123 30.446 105.123 33.5605Z" fill="#4B9BBE"/>
<path d="M64.459 41.7871V15.7871H67.582C70.0312 15.5 72.1608 15 74.4121 15C75.7324 15 77.0527 15.237 78.373 15.7109C79.7103 16.1849 80.7598 16.8535 81.5215 17.7168C83.5358 15.9225 85.804 15.0169 88.3262 15C90.3743 15 92.2617 15.5163 93.9883 16.5488C95.7318 17.5645 96.6035 18.9609 96.6035 20.7383V41.7871H92.1855V22.7949C92.1855 20.2559 90.679 18.9948 87.666 19.0117C85.7871 19.0117 84.1367 19.5872 82.7148 20.7383V41.7871H78.2969V22.7949C78.2969 20.2559 76.7904 18.9948 73.7773 19.0117C71.8307 19.0117 70.1634 19.6042 68.7754 20.7891V41.7871H64.459Z" fill="#4B9BBE"/>
<path d="M45.5801 41.7363V15.7363H48.7031C51.0312 15.7363 53.5273 15.0169 55.2539 15C57.1328 15 58.8678 15.4147 60.459 16.2441L58.7578 19.748C57.2682 19.2233 55.8971 18.9609 54.6445 18.9609C52.918 18.9609 51.3353 19.6042 49.8965 20.8906V41.7363H45.5801Z" fill="#4B9BBE"/>
<path d="M20.5312 33.5605C20.5312 31.2415 21.3776 29.3034 23.0703 27.7461C24.763 26.1888 27.1413 25.4102 30.2051 25.4102H37.1113V23.4297C37.1113 21.8385 36.7982 20.7044 36.1719 20.0273C35.5456 19.3503 34.3861 19.0117 32.6934 19.0117C31.4408 19.0117 29.5365 19.1471 26.9805 19.418L23.4766 19.8496V15.7871C25.3555 15.6517 26.7435 15.5332 27.6406 15.4316C30.6875 15.1608 32.9557 15.0169 34.4453 15C36.8997 15 38.7025 15.694 39.8535 17.082C41.0046 18.4701 41.5801 20.0697 41.5801 21.8809V41.7871H38.3047L37.5684 39.248H37.416C34.403 41.2962 31.5085 42.3118 28.7324 42.2949C26.0918 42.2949 24.0605 41.4062 22.6387 39.6289C21.2337 37.8346 20.5312 35.8118 20.5312 33.5605ZM25.0508 33.5605C25.0508 34.9147 25.4062 36.1335 26.1172 37.2168C26.8281 38.2832 27.9961 38.8164 29.6211 38.8164C30.7721 38.8164 32.0586 38.571 33.4805 38.0801C34.9023 37.5723 36.0957 36.9883 37.0605 36.3281H37.1113V28.8887H30.2051C26.7689 28.8887 25.0508 30.446 25.0508 33.5605Z" fill="#4B9BBE"/>
<path d="M0 42V5.58984H20.8457V8.91602H4.67188V20.4688H18.6621V23.7949H4.67188V42H0Z" fill="#4B9BBE"/>
</svg>
